<svg xmlns="http://www.w3.org/2000/svg" xml:space="preserve" viewBox="0 0 143 125"><path fill="#0a1b35" d="M144 12c0 6.354 0 12.709-.367 19.55-2.454 3.944-5.81 7.21-6.368 10.9-1.226 8.112.77 10.349 6.735 10.55v72.946H1c0-26.966 0-53.987.399-81.48 8.647-1.682 9.617-2.663 11.79-10.339.35-1.235 2.064-2.622 3.388-2.939 3.268-.781 5.478-1.983 6.913-5.456 1.317-3.187 3.712-6.235 6.372-8.462 2.115-1.77 5.624-1.773 8.031-3.314 9.419-6.032 19.3-3.002 28.805-1.7-4.846.66-9.416 1.587-13.927 1.357-8.105-.414-14.49 2.508-20.149 8.395-1.331.539-2.597.834-3.198 1.63-2.165 2.868-4.125 5.892-6.127 8.88-2.782 4.15-5.533 8.321-8.562 12.625-1.083.717-1.9 1.292-3.114 1.868-1.8 1.443-4.21 2.749-4.43 4.354-.793 5.824-.852 11.749-1.189 18.102-1.027 11.473-.537 22.4 2.12 33.149.319 1.288 1.874 2.27 2.919 3.766.904 6.158 3.752 11.198 9.745 11.248 7.094.059 14.035-2.065 19.033-8.117 1.049-1.27 3.22-2.241 4.893-2.272 14.217-.261 28.497.46 42.636-.654 7.674-.604 14.542-.187 19.826 5.123 5.234 5.26 11.357 4.966 17.714 5.336 4.6.268 7.33-1.442 8.354-6.303 4.356-9.39 5.58-19.134 6.864-28.954 1.5-11.465-3.919-21.575-5.428-32.422-.07-.5-1.236-.847-2.121-1.41-.692-.702-1.155-1.257-1.408-2.063 4.598-2.764 1.511-3.907-.755-4.88-5.258-2.26-9.239-5.573-10.681-11.402-1.389-5.61-5.815-7.493-11.032-8.668-.42-.3-.608-.521-.748-1.158-1.018-1.533-1.915-3.536-3.084-3.71-7.262-1.083-14.584-1.76-21.887-2.564-4.653-.511-9.308-1.008-13.641-1.774 8.045-.447 15.772-.596 23.495-.849 1.625-.053 3.233-.525 4.858-.733 3.092-.396 6.24-1.278 9.276-1 7.3.668 9.59 3.993 7.935 9.527 1.967 2.497 3.763 4.567 5.318 6.805 1.889 2.718 3.312 5.803 5.449 8.29 1.206 1.403 3.441 1.923 5.213 2.84.089-1.967.884-4.285.118-5.828-1.531-3.082-.231-4.302 2.231-5.335 1.903-.798 3.832-1.53 6.43-2.563-1.535-1.309-2.722-1.86-3.131-2.764-.872-1.925-1.774-4.046-1.711-6.057.019-.62 3.095-1.273 4.828-1.668 1.414-.323 2.91-.282 4.37-.403"/><path fill="#0a1931" d="M67 12c-9.806-1.046-19.688-4.076-29.107 1.956-2.407 1.541-5.916 1.544-8.031 3.314-2.66 2.227-5.055 5.275-6.372 8.462-1.435 3.473-3.645 4.675-6.913 5.456-1.324.317-3.038 1.704-3.388 2.94-2.173 7.675-3.143 8.656-11.79 9.87C1 29.7 1 15.4 1 1.05q71.5 0 143 .003v10.463c-1.46.604-2.956.563-4.37.886-1.733.395-4.81 1.049-4.828 1.668-.063 2.011.84 4.132 1.71 6.057.41.904 1.597 1.455 3.133 2.764-2.599 1.032-4.528 1.765-6.43 2.563-2.463 1.033-3.763 2.253-2.232 5.335.766 1.543-.03 3.861-.118 5.829-1.772-.918-4.007-1.438-5.213-2.842-2.137-2.486-3.56-5.57-5.449-8.29-1.555-2.237-3.35-4.307-5.318-6.804 1.655-5.534-.636-8.86-7.935-9.527-3.037-.278-6.184.604-9.276 1-1.625.208-3.233.68-4.858.733-7.723.253-15.45.402-23.829.85C67.89 12 67.444 12 67 12"/><path fill="#0a1a32" d="M144 52.542c-5.964.257-7.961-1.98-6.735-10.093.558-3.69 3.914-6.955 6.368-10.431.367 1.696.367 3.41.038 5.638-2.287 2.164-2.123 3.45.329 4.344z"/><path fill="#0a1b35" d="M144 41.6c-2.452-.494-2.616-1.78-.329-3.516.329.983.329 2.05.329 3.516"/><path fill="#0e2550" d="M132.996 111.004c-.777 4.6-3.508 6.31-8.108 6.042-6.357-.37-12.48-.075-17.714-5.336-5.284-5.31-12.152-5.727-19.826-5.123-14.14 1.114-28.419.393-42.636.654-1.673.03-3.844 1.001-4.893 2.272-4.998 6.052-11.94 8.176-19.033 8.117-5.993-.05-8.84-5.09-9.738-11.693-.354-4.55-.654-8.282-.586-11.997 1.111.034 1.854.051 2.721.302.223.381.32.528.307 1.131a224 224 0 0 0-.003 9.43c.141 7.577 2.218 9.379 10.628 9.254 6.346-.094 8.607-2.7 8.741-10.019 1.194-.682 2.148-1.147 3.552-1.467 20.508.11 40.565.078 61.03.158 3.436-.048 6.465-.208 9.8-.198 1.478.175 2.649.18 4.06.499.676 2.554 1.11 4.796 1.554 7.412 2.414 1.29 4.82 2.205 7.611 3.217 2.435-.136 4.483-.37 6.874-.597 1.107-1.02 1.872-2.049 2.852-3.175.215-.098.684-.162.877.096.772.513 1.351.767 1.93 1.02"/><path fill="#091e40" d="M133.242 110.743c-.825.007-1.404-.247-2.13-1.186-.16-2.981-.172-5.278-.07-7.87.178-.71.242-1.127.642-1.635.353-2.06.372-4.029.333-6.416.04-1.812.137-3.206.619-4.626 1.378-1.794 3.283-3.6 3.21-5.322-.367-8.632-1.2-17.247-2.054-25.849-.07-.695-1.542-1.252-2.427-2.077-.063-.203-.24-.592-.056-.913.453-1.505.722-2.688 1.18-4.108.226-1.038.262-1.838.297-2.639.656.418 1.822.765 1.892 1.265 1.509 10.847 6.929 20.957 5.428 32.422-1.285 9.82-2.508 19.564-6.864 28.954"/><path fill="#091e3c" d="M66.698 12.256C67.444 12 67.888 12 68.667 12c4.987.504 9.642 1 14.295 1.512 7.303.804 14.625 1.48 21.887 2.564 1.17.174 2.066 2.177 2.72 3.629-2.45.304-4.532.314-6.853.372-.239.05-.69.238-.986.078-1.145-.379-1.993-.597-2.909-1.22-.68-.887-1.291-1.79-1.907-1.793a3985 3985 0 0 0-45.773-.016c-.73.004-1.455 1.077-2.557 1.72-2.776.765-5.179 1.463-7.78 1.956-2.066.266-3.933.737-5.801 1.204-.002-.005-.01-.013-.01-.013 5.288-5.872 11.673-8.794 19.778-8.38 4.511.23 9.081-.696 13.927-1.357M108.867 21.06c5.03 1.059 9.457 2.943 10.846 8.552 1.442 5.829 5.423 9.142 10.68 11.401 2.267.974 5.354 2.117.435 4.704-3.99-2.29-9.826-.912-11.147-7.008-3.619-6.11-7.216-11.879-10.814-17.648"/><path fill="#091e3d" d="M10.094 93.923c.3 3.732.6 7.464.891 11.641-.99-.678-2.544-1.66-2.863-2.948-2.657-10.75-3.147-21.676-1.806-33.212 1.434-1.485 2.553-2.443 3.935-3.402.438-.004.613-.006.78.367-.008 1.124-.007 1.872-.323 2.81-5.139 6.317-1.772 12.59-.647 19.248.008 2.115.02 3.805.033 5.496"/><path fill="#263a67" d="M108.681 20.944c3.784 5.886 7.381 11.655 10.645 17.76-1.556.317-2.778.299-4.13-.04-.481-.85-.831-1.382-1.177-2.085a14 14 0 0 0-.012-.88c-.814-1.936-1.623-3.5-2.407-5.076-2.278-4.576-5.335-8.31-10.48-9.735.03.035.082-.04.036-.25s-.2-.61-.2-.61c2.081-.01 4.163-.019 6.609.053.508.342.697.563 1.116.863"/><path fill="#0e2550" d="M11.039 65.995c-.175.001-.35.003-.798-.4C9.06 58.95 7.934 52.686 12.017 47.01c.817-.576 1.635-1.151 3.01-1.997 1.362-.518 2.168-.767 3.266-.977.77.354 1.248.67 1.577 1.254-1.419 1.118-2.688 1.97-4.28 3.053-3.423 2.296-3.53 4.724-1.505 7.707-1.222 3.489-2.134 6.716-3.046 9.944"/><path fill="#274178" d="m115.326 38.984 4.021.06c1.655 5.76 7.492 4.383 11.271 6.923.784.733 1.247 1.288 1.939 1.99.194.946.158 1.746-.35 2.526-4.668-.964-8.863-1.906-13.176-3.173-1.314-2.991-2.51-5.659-3.705-8.326"/><path fill="#091e3c" d="M18 44c-.805.247-1.61.496-2.708.873 2.472-4.034 5.223-8.204 8.005-12.355 2.002-2.988 3.962-6.012 6.127-8.88.601-.796 1.867-1.091 3.198-1.63.371-.015.379-.007.213.3-2.058 4.436-3.949 8.563-6.211 12.703-1.455 1.34-2.538 2.666-3.623 4.242-.002.248-.007.745-.354.794C20.866 41.397 19.433 42.7 18 44"/><path fill="#0a1d3a" d="M11.621 47.01C7.934 52.688 9.06 58.95 9.98 65.597c-1.11 1.365-2.23 2.323-3.662 3.343.022-5.825.081-11.75.875-17.574.218-1.605 2.63-2.911 4.43-4.354"/><path fill="#b7ccf6" d="M97.03 102.617c-20.057.032-40.114.065-60.595-.398 3.647-3.09 7.717-5.686 12.148-8.08 4.592.522 8.823 1.124 13.052 1.106 11.41-.05 22.82-.365 34.284-.25.078.544.102.762.266 1.328.374 2.33.61 4.312.846 6.294"/><path fill="#cdddf8" d="M13.602 94.917c-.098-.147-.196-.294-.297-1.13-.092-5.724-.182-10.76-.142-16.068.246-.438.36-.603.864-.764 2.962-.664 5.534-1.333 8.368-1.784 4.266 5.17 10.285 4.223 15.58 5.82.356 3.368 1.539 5.063 4.173 2.24 2.051-2.199 3.68-1.967 5.805-.342.851.65 2.094.787 3.008 1.437-1.078 1.41-2.006 2.54-3.314 3.672-4.752 3.003-9.292 3.954-14.566 2.235-1.362-.443-3.428 1.601-5.269 2.2-1.613.525-3.775 1.403-4.975.767-3.403-1.805-5.614-.45-8.07 1.786-.542-.077-.852-.094-1.165-.069"/><path fill="#c1d3f8" d="M97.438 102.729c-.643-2.094-.879-4.076-.87-6.4 1.591-1.043 3.43-1.4 4.2-2.504 3.492-5 6.06-5.802 11.614-3.55 2.207.895 4.949 2.109 6.963 1.52 5.248-1.535 8.477 1.112 11.815 4.63.084 1.517.136 2.618.189 3.72-.065.415-.13.831-.744 1.545-7.176-1.322-13.794-2.976-20.434-4.534-1.336-.314-2.757-.265-4.139-.384.333 1.412.666 2.824.96 4.573-.047.563-.053.79-.06 1.016-3.029.16-6.058.32-9.494.368"/><path fill="#c6d9fb" d="M15 95.004c2.223-2.254 4.434-3.61 7.837-1.804 1.2.636 3.362-.242 4.975-.767 1.841-.599 3.907-2.643 5.269-2.2 5.274 1.719 9.814.768 14.587-1.81.45 2.121.502 3.818.554 5.515-4.07 2.595-8.14 5.19-12.237 8.137-.981.816-1.935 1.28-3.52 1.87-1.623-.445-2.704-.902-3.589-1.606-5.389-4.29-9.651-3.726-13.876 3.115z"/><path fill="#b2c8f2" d="M14.767 94.986c.233 3.078.233 6.14.233 10.468 4.225-6.841 8.487-7.405 13.876-3.115.885.704 1.966 1.161 3.348 1.825.498 7.192-1.763 9.799-8.109 9.893-8.41.125-10.487-1.677-10.628-9.255-.056-2.99-.074-5.982.003-9.429.425-.48.735-.464 1.277-.387"/><path fill="#b7ccf6" d="m107.03 101.007-.998-4.235c1.382.119 2.803.07 4.14.384 6.64 1.558 13.257 3.212 20.32 4.83.448 2.293.46 4.59.426 7.312-.045.427-.514.49-1.09.61-1.33 1.129-2.082 2.138-2.834 3.147-2.048.234-4.096.468-6.549.243-.803-6.579-4.978-2.892-7.602-3.23-.435-2.242-.869-4.484-1.656-7.359-1.62-.99-2.888-1.345-4.156-1.702"/><path fill="#172f66" d="M13.033 77.991c.09 5.036.18 10.072.148 15.563-.865.437-1.608.42-2.719.386-.38-1.708-.393-3.398-.155-5.828 1.075-3.866 1.9-6.994 2.726-10.12"/><path fill="#9db6e9" d="M112.852 110.442c2.615-.036 6.79-3.723 7.206 2.758-2.387-.553-4.792-1.468-7.206-2.758M127.337 113.062c.409-1.016 1.161-2.025 2.275-3.056-.403 1.007-1.168 2.035-2.275 3.056M106.991 101.345c1.308.019 2.575.375 3.955 1.051-1.06.315-2.23.31-3.707.135-.3-.397-.294-.623-.248-1.186"/><path fill="#e1ebf8" d="M119.15 47.634c4.194.943 8.39 1.885 12.867 3.086.014 1.441-.255 2.624-1.064 4.15-2.063.776-3.586 1.208-5.373 1.715.61 1.444 1.1 2.602 1.663 4.082.372.637.67.95.929 1.252-.04-.013.007-.08-.248.18-2.243 2.015-4.23 3.77-6.586 5.417-1.366-.32-2.363-.532-3.539-1.013-1.955-2.649-3.813-3.096-5.95-.82-3.718-2.437-7.284-4.56-10.85-7.053 0-1.356 0-2.342.43-3.443 4.03-.847 7.63-1.578 11.623-2.322 3.323-.628 6.265-1.23 6.097-5.231"/><path fill="#c8d9f9" d="M131.129 96.007c-3.307-3.1-6.536-5.747-11.784-4.212-2.014.589-4.756-.625-6.963-1.52-5.555-2.252-8.122-1.45-11.613 3.55-.77 1.103-2.61 1.46-4.34 2.156-.408-.224-.432-.442-.35-1.318 2.113-5.613.078-8.991-4.07-11.883 2.64-3.223 7.247-3.439 10.593-.624 2.36 1.987 4.224 2.842 5.756-1.054 1.462-.407 2.555-.744 3.898-1.133.414-.01.58.031.8.418 5.45 8.769 5.406 8.682 13.87 4.475 1.232-.613 3.101.054 4.808.52.26 1.48.389 2.567.518 3.654a112 112 0 0 1-.416 4.808 21 21 0 0 1-.707 2.163"/><path fill="#092250" d="M132.636 89.01c-.513-1.061-.641-2.149-.772-3.995-.09-1.523-.18-2.287-.137-3.488.166-3.792.201-7.146.463-10.686-.104-1.107-.434-2.03-.917-3.277-.85-2.091-1.55-3.857-2.103-5.942.85-2.098 1.555-3.877 2.26-5.656.82.621 2.293 1.178 2.362 1.873.855 8.602 1.687 17.217 2.054 25.849.073 1.722-1.832 3.528-3.21 5.322"/><path fill="#274178" d="M131.365 55.762a37.6 37.6 0 0 1-2.407 5.838c-.357.298-.779.238-.779.238s-.046.068-.08-.242c-.334-.625-.632-.938-.93-1.251l-1.589-3.76c1.787-.507 3.31-.939 5.189-1.393.355-.022.533.367.596.57"/><path fill="#31487e" d="M131.16 96.424c.164-.93.358-1.442.734-2.162a22.2 22.2 0 0 1-.21 5.79c-.388-1.009-.44-2.11-.524-3.628"/><path fill="#f3f6fa" d="M96.889 19.34c.848.218 1.696.436 2.99.988.446.334.865.522.865.522l.458-.002s-.052.075-.107.522c-.158 2.373-.26 4.3-.585 6.244-.225.019-.534-.309-.581-.495-.342-.153-.637-.12-1.396-.023-17.455.063-34.444.035-51.433.083-3.987.011-6.883 1.768-8.338 5.952-1.396 2.715-2.452 5.315-3.655 8.265-.798 2.759-1.449 5.168-2.304 7.708-.37.413-.57.665-1.18.876-1.886-1.368-3.402-2.725-4.904-4.452a62 62 0 0 1 1.26-4.888c2.432-4.774 4.721-9.221 7.316-13.764 1.395-1.377 2.484-2.659 3.61-3.931.036.009.04-.067.423-.071 3.09-.682 5.798-1.36 8.962-1.925 4.254-.475 8.05-1.062 12.307-1.683 12.403.002 24.348.038 36.292.074"/><path fill="#091f4e" d="M96.821 18.935c-11.876.369-23.82.333-36.676.203-4.582-.066-8.254-.039-12.24-.102-.524-.147-.735-.203-.947-.258.728-.575 1.452-1.648 2.183-1.652 15.257-.088 30.516-.071 45.773.016.616.004 1.226.906 1.907 1.793"/><path fill="#0e2550" d="M34.989 26.972c-2.289 4.447-4.578 8.894-7.357 13.7-2.208 1.676-3.925 2.992-5.63 3.942.339-1.782.666-3.2.992-4.616 0 0 .005-.497.287-.896a173 173 0 0 1 3.714-4.104c1.891-4.127 3.782-8.254 5.842-12.685 2.034-.774 3.9-1.245 5.953-1.2.175.934.165 1.35.155 1.765 0 0-.004.076-.406.07-1.451 1.337-2.5 2.68-3.55 4.024"/><path fill="#1c325e" d="M39.328 22.874c-.373-.412-.363-.827-.339-1.555 2.416-1.01 4.819-1.708 7.595-2.474.586-.012.797.044 1.227.468.154.754.089 1.14.023 1.525-2.708.677-5.416 1.354-8.506 2.036"/><path fill="#e2e8f1" d="M101.156 20.638c.046.21-.412.212-.412.212s-.419-.188-.569-.361c-.15-.174.302-.363.541-.412s.394.352.44.561"/><path fill="#0e2550" d="M13.163 77.719c-.956 3.4-1.78 6.527-2.852 9.969-1.375-5.919-4.742-12.192.77-18.502 1.19-.152 1.687-.124 2.254.339.146 2.764.225 5.095.304 7.425-.115.166-.23.331-.476.769"/><path fill="#172f66" d="M13.267 69.09c-.499-.028-.997-.056-1.869-.092-.374-.757-.375-1.505-.368-2.629.92-3.602 1.833-6.83 3.436-10.338 2.05.099 3.407.479 4.577.806z"/><path fill="#eef4fa" d="m100.734 27.595.331-6.26c5.2.978 8.257 4.712 10.535 9.288.784 1.576 1.593 3.14 2.159 5.104-.07.603.093.814.255 1.024.35.531.7 1.063 1.182 1.914 1.326 2.986 2.521 5.654 3.835 8.645.286 4.324-2.656 4.927-5.951 5.178-.99-2.575-1.305-4.936-2.298-6.965-3.013-6.155-3.397-13.814-10.048-17.928"/><path fill="#274178" d="M114.02 36.579a.37.37 0 0 1-.245-.487c.247-.029.25.315.244.487"/><path fill="#e3ecfa" d="M13.335 69.525c1.792-4.381 3.653-8.329 5.708-12.688-1.17-.327-2.527-.707-4.267-1.067-2.715-2.702-2.609-5.13 1.205-7.342 3.99-1.197 8.158 1.503 10.725-2.53 1.515 1.357 3.03 2.714 4.955 4.417.806 1.286 1.202 2.225 1.644 3.27.045.105.27.143.426.395.892.369 1.628.486 2.814.715 11.799.078 23.148.043 34.942.115 4.123.035 7.799-.036 11.929.025 6.163.244 11.872.355 17.582.467 0 .986 0 1.972-.355 3.388-2.01 1.687-3.595 3.913-5.327 4.034-7.862.55-15.766.467-23.652.693-3.592.102-7.511-.446-10.683.811-3.88 1.537-6.58 1.263-9.943-1.038-3.736-2.556-7.504-.691-9.343 3.954-1.124 1.118-1.943 2.091-3.17 3.037-2.713-.674-5.048-1.234-7.32-1.983-7.28-2.4-9.067-1.093-9.071 6.754-2.573.67-5.145 1.339-8.107 2.003-.467-2.335-.546-4.666-.692-7.43"/><path fill="#223971" d="M26.72 45.528c-2.581 4.403-6.75 1.703-10.417 2.668.879-.935 2.148-1.787 3.895-2.91.916-.282 1.354-.294 1.792-.307 1.717-1.315 3.434-2.63 5.498-3.979-.021 1.364-.388 2.76-.769 4.528"/><path fill="#0a2042" d="M22.002 44.614c-.45.378-.888.39-1.655.407-.806-.313-1.284-.63-2.054-.984 1.14-1.338 2.573-2.64 4.354-3.99.02 1.368-.306 2.785-.645 4.567M26.624 35.01c-.773 1.223-1.917 2.458-3.34 3.843a22.4 22.4 0 0 1 3.34-3.842"/><path fill="#13387d" d="M91.942 83.145c4.215 2.527 6.25 5.905 4.083 11.193-11.57.542-22.98.857-34.39.907-4.229.018-8.46-.584-13.052-1.105-.413-1.9-.464-3.596-.536-5.719.908-1.556 1.836-2.686 3.173-4.137.546-.431.682-.541 1.04-.637.547-.067.744-.273.785-.625-.028-.025 0 .045.425.098 2.13-.036 3.834-.127 5.997-.113 8.485.03 16.512-.045 24.968-.011 2.79.122 5.148.135 7.507.149"/><path fill="#d5e3fc" d="M52.037 83.633c-.135.11-.271.22-.666.372-1.324-.329-2.567-.466-3.418-1.116-2.125-1.625-3.754-1.857-5.805.341-2.634 2.824-3.817 1.129-3.878-2.423 4.565-1.306 3.648-4.272 3.344-7.363 1.557-.021 3.458-.223 4.018.55 2.94 4.045 6.566 2.855 10.274 1.84 1.872-.512 3.777-1.445 5.634-1.37 8.464.336 17.05 2.09 25.326 1.103 5.848-.696 11.02-3.053 15.585 2.398.072.086.32.026.611.248.487.55.849.887 1.245 1.332.034.109.253.176.447.439 1.207.57 2.22.879 3.234 1.187-1.162 3.827-3.025 2.972-5.386.985-3.346-2.815-7.953-2.6-10.593.624-2.426.351-4.785.338-7.592-.146-2.837-1.657-5.143-3.605-7.631-3.874-5.254-.567-10.605-.358-15.91-.235-1.303.03-2.585.958-4.262 1.477-1.447 1.025-2.508 2.045-3.569 3.065 0 0-.028-.07-.202-.008-.443.161-.653.332-.806.574"/><path fill="#1b4391" d="M41.34 73.714c.578 2.821 1.495 5.787-3.087 6.713-5.573-1.033-11.592-.086-15.858-5.256-.257-8.066 1.53-9.374 8.81-6.973 2.272.749 4.607 1.309 7.449 2.271 1.252 1.293 1.969 2.269 2.685 3.245"/><path fill="#123576" d="M71.041 54.703c-11.348.035-22.697.07-34.619-.305-1.331-.497-2.089-.583-2.847-.67 0 0-.225-.038-.092-.515-.07-1.731-.273-2.986-.476-4.24.651-2.41 1.302-4.818 2.42-7.66 1.536-3.054 2.606-5.675 3.675-8.296 1.115-4.07 4.01-5.827 7.998-5.838 16.989-.048 33.978-.02 51.649.088.863.085 1.045.061 1.227.038 0 0 .31.328.534.31 6.875 4.094 7.259 11.753 10.272 17.908.993 2.029 1.308 4.39 1.904 6.977-3.627 1.109-7.227 1.84-11.258 2.687-6.14.003-11.85-.108-17.973-.739.928-1.154 2.224-2.17 3.625-2.342 2.46-.304 4.984-.047 7.48-.108 4.773-.117 7.323-3.828 7.11-7.355-.258-4.249-1.774-10.648-4.681-12.023-5.223-2.47-11.875-2.209-17.958-2.495-7.183-.339-14.408.213-21.594-.102-7.16-.315-11.953 1.881-13.7 7.853-.857 2.932-.768 6.257-.468 9.343.099 1.022 2.11 2.49 3.393 2.66 6.825.905 13.713 1.341 20.538 2.245 1.37.181 2.565 1.685 3.841 2.58"/><path fill="#e2ebfc" d="M42 66.998c1.534-4.5 5.302-6.364 9.038-3.808 3.364 2.3 6.064 2.575 9.943 1.038 3.172-1.257 7.091-.709 10.683-.811 7.886-.226 15.79-.143 23.652-.693 1.732-.12 3.318-2.347 5.327-3.664 3.922 2.062 7.488 4.186 11.23 7.059.243 1.326.31 1.903.199 2.65-.497.277-.775.449-1.338.637-1.561.304-2.797.658-4.353.801-1.586-1.837-2.852-3.463-4.345-5.38-4.045 4.05-8.173 3.684-12.722 2.005-1.799-.664-4.376-.574-6.122.22-5.948 2.708-11.808 2.689-17.858.674-1.063-.354-2.707-.917-3.302-.43-6.656 5.453-13.083 3.558-19.539-.273-.125-.074-.327-.02-.493-.025"/><path fill="#d6e4f9" d="M127.924 62.099c.255-.26.677-.2.889-.179.91 1.787 1.61 3.553 2.385 5.966.306 1.48.535 2.31.765 3.141-.035 3.354-.07 6.708-.554 10.427-3.256-1.661-6.062-3.688-8.772-6.017.26-.691.423-1.08.783-1.716.03-1.4-.137-2.552-.467-3.932-.525-.873-.886-1.52-1.246-2.166 1.987-1.755 3.974-3.509 6.217-5.524"/><path fill="#244b9a" d="M121.338 67.516c.73.753 1.09 1.4 1.58 2.668.19 1.676.248 2.73.306 3.783-.164.39-.328.779-.742 1.465-.25.297-.556.26-.626-.058-2.003-2.656-3.935-4.994-5.666-7.552.73-.498 1.26-.774 1.788-1.051.997.213 1.994.426 3.36.745"/><path fill="#d6e3f8" d="M117.799 66.503c-.35.545-.879.821-1.988 1.31a54 54 0 0 1-3.561.786 75 75 0 0 1-.225-2.166c1.961-3.026 3.819-2.579 5.774.07"/><path fill="#d6e4f9" d="M127.243 60.667q.336-.014.894.941-.336.014-.894-.94"/><path fill="#0c3985" d="M112.072 68.77c1.171-.363 2.164-.555 3.537-.737 2.312 2.347 4.244 4.685 6.124 7.682-2.946 1.882-5.84 3.104-8.733 4.326-.165-.04-.33-.082-1.053-.344-2.834-.14-5.11-.058-7.387.024 0 0-.219-.067-.028-.515.227-2.469.264-4.49.4-6.718.101-.206.513-.408.854-.405 1.985-.874 3.63-1.75 5.274-2.627.237-.238.515-.41 1.012-.687"/><path fill="#cbddf9" d="M113.056 80.387c2.838-1.568 5.731-2.79 8.747-4.354.123-.341.43-.304.584-.299 2.96 2.032 5.766 4.059 8.89 6.158.407.836.496 1.6.455 2.731-1.705.293-3.574-.374-4.806.239-8.464 4.207-8.42 4.294-13.87-4.475"/><path fill="#2d529e" d="M104.754 79.984c2.082-.345 4.359-.427 6.943-.236-.784.61-1.877.947-3.34 1.354-1.382-.24-2.396-.547-3.603-1.118"/><path fill="#31487e" d="M132.19 70.841c-.457-.645-.686-1.476-.84-2.629.406.6.736 1.522.84 2.63"/><path fill="#9dabc5" d="M48.29 20.949c-.39-.497-.325-.882-.165-1.544 3.766-.306 7.438-.333 11.561-.233-3.345.715-7.142 1.302-11.396 1.777"/><path fill="#345195" d="M38.762 33.131c-.73 2.507-1.799 5.128-3.188 7.832.736-2.517 1.792-5.117 3.188-7.832"/><path fill="#1c325e" d="M35.295 26.876c.743-1.248 1.793-2.591 3.207-3.937-.723 1.278-1.812 2.56-3.207 3.937"/><path fill="#345195" d="M32.803 49.104c.407 1.123.61 2.378.635 4.004-.575-.568-.971-1.507-1.406-2.782.2-.557.402-.81.771-1.222"/><path fill="#e2e8f1" d="M99.929 27.119c-.135.21-.317.233-.715.085.078-.204.373-.238.715-.085"/><path fill="#0a295c" d="M71.487 54.81c-1.722-1-2.917-2.505-4.287-2.686-6.825-.904-13.713-1.34-20.538-2.245-1.282-.17-3.294-1.638-3.393-2.66-.3-3.086-.389-6.411.469-9.343 1.746-5.972 6.54-8.168 13.7-7.853 7.185.315 14.41-.237 21.593.102 6.083.286 12.735.025 17.958 2.495 2.907 1.375 4.423 7.774 4.68 12.023.214 3.527-2.336 7.238-7.11 7.355-2.495.061-5.02-.196-7.48.108-1.4.173-2.696 1.188-4.078 2.21-3.715.458-7.391.53-11.514.494m-16.946-7.568c2.069.58 4.116 1.558 6.209 1.668 8.277.434 16.57.783 24.855.76 2.897-.009 5.865-.957 8.665-1.886 2.661-.883 3.555-2.712 3.016-5.851-.987-5.749-5.524-7.627-9.792-8.609-4.675-1.074-10.049.657-14.612-.628-7.829-2.206-14.36 1.43-21.246 3.208-4.602 1.187-4.915 5.868-1.11 8.786 1.052.807 2.212 1.474 4.015 2.552"/><path fill="#dce7fb" d="M105.445 72.08s-.412.202-.83.595c-.84 2.036-1.26 3.68-1.679 5.324-.165-.008-.413.052-.485-.034-4.565-5.451-9.737-3.094-15.585-2.398-8.276.986-16.862-.767-25.326-1.104-1.857-.074-3.762.86-5.634 1.371-3.708 1.015-7.333 2.205-10.274-1.84-.56-.773-2.461-.571-4.018-.55-.991-.706-1.708-1.682-2.552-2.947.69-1.262 1.509-2.235 2.633-3.353.471-.14.673-.195.798-.12 6.456 3.83 12.883 5.725 19.54.272.594-.487 2.238.076 3.301.43 6.05 2.015 11.91 2.034 17.858-.673 1.746-.795 4.323-.885 6.122-.22 4.549 1.678 8.677 2.045 12.722-2.006 1.493 1.917 2.76 3.543 4.18 5.59-.155.836-.463 1.25-.771 1.663"/><path fill="#345195" d="M33.731 53.98c.602-.165 1.36-.079 2.24.305-.612.18-1.348.064-2.24-.305"/><path fill="#d1e0fb" d="M57 79.998c1.29-.515 2.573-1.442 3.876-1.473 5.305-.123 10.656-.332 15.91.235 2.488.27 4.794 2.217 7.2 3.766a249 249 0 0 1-24.531.144c-1.132-1.185-1.794-1.929-2.456-2.672"/><path fill="#c8d9f9" d="M56.614 80.002c1.047.74 1.709 1.483 2.383 2.563-1.693.428-3.398.519-5.527.555.636-1.073 1.697-2.093 3.144-3.118M52.26 83.647c-.07-.256.14-.427.61-.563.134.29-.063.496-.61.563"/><path fill="#2d529e" d="M103.062 78.213c.294-1.858.713-3.502 1.452-5.332.282 1.835.245 3.856-.017 6.216-.586.003-.948-.333-1.435-.884"/><path fill="#244b9a" d="M105.786 72.083c-.033-.416.275-.83.75-1.454 1.401-.565 2.637-.919 4.198-1.223-1.318.926-2.963 1.803-4.948 2.677"/><path fill="#cbddf9" d="M123.42 73.72c-.254-.807-.313-1.86-.337-3.309.2.758.366 1.91.337 3.31"/><path fill="#0b2653" d="M54.195 47.069c-1.457-.905-2.617-1.572-3.669-2.379-3.805-2.918-3.492-7.599 1.11-8.786 6.886-1.778 13.417-5.414 21.246-3.208 4.563 1.285 9.937-.446 14.612.628 4.268.982 8.805 2.86 9.792 8.609.539 3.139-.355 4.968-3.016 5.851-2.8.93-5.768 1.877-8.665 1.885-8.286.024-16.578-.325-24.855-.76-2.093-.11-4.14-1.088-6.555-1.84"/></svg>