<svg xmlns="http://www.w3.org/2000/svg" xml:space="preserve"  x="0" y="0" version="1.1" viewBox="0 0 860 296"><path d="M382.17 140.79h45.28c20.95 0 38.22 6.67 38.22 30.53 0 12.48-6.44 20.95-18.52 24.41 15.62 3.14 23.31 11.77 23.31 27.7 0 24.48-18.36 32.25-39.94 32.25h-48.34V140.79zm42.53 48.18c12.48 0 19.54-3.69 19.54-17.19 0-12.56-8.95-15.38-19.85-15.38H403.9v32.57h20.8zm3.06 51.09c12.71 0 20.8-4.94 20.8-18.13 0-14.6-9.97-18.21-22.29-18.21H403.9v36.33h23.86zM525.77 169.83c25.5 0 45.12 17.89 45.12 43.63 0 26.45-20.64 43.79-45.99 43.79-25.58 0-46.14-17.74-46.14-43.4 0-26.37 21.74-44.02 47.01-44.02zm23.54 43.79c0-15.46-7.85-28.33-24.33-28.33-16.95 0-23.7 13.5-23.7 28.88 0 14.91 7.93 27.62 24.17 27.62 16.8 0 23.86-13.5 23.86-28.17zM624.33 169.83c25.5 0 45.12 17.89 45.12 43.63 0 26.45-20.64 43.79-45.99 43.79-25.58 0-46.14-17.74-46.14-43.4.01-26.37 21.74-44.02 47.01-44.02zm23.55 43.79c0-15.46-7.85-28.33-24.33-28.33-16.95 0-23.7 13.5-23.7 28.88 0 14.91 7.93 27.62 24.17 27.62 16.79 0 23.86-13.5 23.86-28.17zM684.13 133.57h20.09v74.71l30.45-36.65h22.05l-33.35 38.53 35.86 45.52h-23.15l-31.86-40.96v40.96h-20.09V133.57zM779.78 230.64c3.14 8.24 11.69 12.16 20.8 12.16 6.51 0 14.6-2.04 14.6-9.97 0-8.4-9.1-10.36-19.46-12.56-13.5-2.83-28.64-6.12-28.64-24.96 0-17.26 16.09-25.5 31.31-25.5 13.34 0 28.56 5.02 34.06 18.29l-14.91 6.43c-3.3-7.46-11.54-10.28-18.44-10.28-6.67 0-13.11 2.67-13.11 9.5 0 7.69 8.24 9.34 18.36 11.3 13.73 2.67 30.06 5.81 30.06 25.43 0 19.78-16.56 26.76-34.06 26.76-14.83 0-30.76-5.02-36.02-20.09l15.45-6.51zM382.32 104.43l36.97-53.42h-33.23V40.47h50.63v5.25l-36.07 53.42h35.03v10.54h-53.32v-5.25zM468.36 57.96c15.36 0 27.18 10.78 27.18 26.28 0 15.93-12.43 26.38-27.7 26.38-15.41 0-27.8-10.68-27.8-26.14 0-15.89 13.1-26.52 28.32-26.52zm14.18 26.37c0-9.31-4.73-17.06-14.65-17.06-10.21 0-14.28 8.13-14.28 17.4 0 8.98 4.77 16.64 14.56 16.64 10.12-.01 14.37-8.14 14.37-16.98zM504.38 36.12h12.1v30.96c3.26-6.29 9.93-9.12 16.92-9.12 12.1 0 18.15 8.51 18.15 20.04v31.67h-12.2V79.18c0-7.28-3.78-11.25-10.83-11.25-7.75 0-12.05 4.77-12.05 12.01v29.73h-12.1V36.12zM587.72 57.96c15.36 0 27.18 10.78 27.18 26.28 0 15.93-12.43 26.38-27.7 26.38-15.41 0-27.8-10.68-27.8-26.14.01-15.89 13.1-26.52 28.32-26.52zm14.18 26.37c0-9.31-4.73-17.06-14.65-17.06-10.21 0-14.28 8.13-14.28 17.4 0 8.98 4.77 16.64 14.56 16.64 10.12-.01 14.37-8.14 14.37-16.98z"/><path d="M234.32 293H36.21a8.5 8.5 0 0 1-8.5-8.5v-71.98c0-15.72 9.99-29.72 24.86-34.82l219.56-75.36c17.09-5.87 28.58-21.96 28.58-40.03 0-23.34-18.99-42.32-42.32-42.32H44.7v140.17c0 4.69-3.8 8.5-8.5 8.5s-8.5-3.8-8.5-8.5V11.5A8.5 8.5 0 0 1 36.2 3h222.2c32.71 0 59.31 26.61 59.31 59.31 0 25.33-16.1 47.88-40.06 56.1L58.09 193.77a19.823 19.823 0 0 0-13.39 18.75V276h189.61c17.74 0 34.41-6.91 46.95-19.45 12.54-12.54 19.45-29.21 19.45-46.95 0-12.55-3.54-24.8-10.23-35.41a66.229 66.229 0 0 0-27.16-24.32 8.492 8.492 0 0 1-3.93-11.35 8.492 8.492 0 0 1 11.35-3.93c14 6.79 25.79 17.35 34.11 30.55a83.23 83.23 0 0 1 12.85 44.47c0 22.27-8.67 43.22-24.43 58.97-15.73 15.74-36.68 24.42-58.95 24.42z" style="fill:#226db4;"/><path d="M123.3 121.89c-18.74 0-33.98-15.24-33.98-33.98s15.24-33.98 33.98-33.98 33.98 15.24 33.98 33.98-15.24 33.98-33.98 33.98zm0-50.97c-9.37 0-16.99 7.62-16.99 16.99s7.62 16.99 16.99 16.99 16.99-7.62 16.99-16.99-7.62-16.99-16.99-16.99zM208.49 241.89c-18.74 0-33.98-15.24-33.98-33.98s15.24-33.98 33.98-33.98 33.98 15.24 33.98 33.98-15.24 33.98-33.98 33.98zm0-50.98c-9.37 0-16.99 7.62-16.99 16.99s7.62 16.99 16.99 16.99c9.37 0 16.99-7.62 16.99-16.99s-7.62-16.99-16.99-16.99z" style="fill:#226db4;"/></svg>